<?xml version="1.0" standalone="no"?>
<!DOCTYPE svg PUBLIC "-//W3C//DTD SVG 20010904//EN"
 "http://www.w3.org/TR/2001/REC-SVG-20010904/DTD/svg10.dtd">
<svg version="1.0" xmlns="http://www.w3.org/2000/svg"
 width="416.000000pt" height="415.000000pt" viewBox="0 0 416.000000 415.000000"
 preserveAspectRatio="xMidYMid meet">

<g transform="translate(0.000000,415.000000) scale(0.100000,-0.100000)"
fill="#000000" stroke="none">
<path d="M1988 4043 c-43 -27 -52 -66 -26 -116 20 -41 20 -42 3 -93 -10 -29
-15 -61 -12 -71 3 -10 13 -38 22 -63 11 -30 14 -59 10 -87 -6 -41 -7 -42 -53
-48 -26 -4 -61 -8 -79 -11 -222 -29 -481 -132 -661 -262 -42 -31 -80 -61 -84
-66 -8 -12 -59 33 -78 70 -13 24 -10 28 83 122 l97 98 -54 53 -55 54 -38 -35
c-21 -19 -69 -65 -106 -102 -68 -66 -87 -74 -87 -34 0 38 -41 108 -78 133 -88
60 -218 1 -253 -114 -26 -86 15 -157 112 -192 32 -12 59 -25 59 -28 0 -4 -40
-47 -90 -96 -49 -49 -90 -93 -90 -98 0 -12 81 -107 92 -107 4 0 52 41 105 90
53 50 100 90 105 90 5 0 27 -17 50 -39 l42 -39 -66 -87 c-84 -112 -142 -213
-191 -334 -52 -131 -91 -285 -96 -388 -1 -16 -14 -29 -42 -44 l-41 -21 -52 23
c-60 26 -130 28 -175 5 -28 -15 -33 -15 -55 -1 -13 9 -40 16 -61 17 -31 1 -43
-4 -68 -32 -27 -30 -29 -37 -25 -93 4 -50 9 -64 32 -84 32 -27 55 -29 114 -6
41 15 47 15 91 -1 46 -16 50 -16 105 4 44 17 68 20 107 15 59 -8 64 -16 72
-125 10 -127 76 -350 143 -482 36 -72 106 -179 168 -257 l50 -64 -23 -16 c-13
-9 -51 -33 -84 -54 l-62 -38 -22 28 c-26 32 -123 207 -172 308 -53 110 -81
218 -77 300 3 68 2 73 -46 158 -27 48 -53 87 -56 87 -4 0 -15 -30 -25 -67 -15
-55 -73 -250 -92 -310 -6 -19 6 -16 48 13 21 14 41 23 44 21 15 -16 171 -672
195 -820 12 -80 6 -75 153 -108 80 -17 407 -101 754 -193 25 -7 46 -17 48 -23
2 -6 -8 -24 -22 -41 -26 -31 -33 -48 -15 -37 10 6 35 11 234 45 65 11 120 21
122 22 1 2 -27 35 -62 75 l-65 72 -43 -20 -44 -19 -73 25 c-41 14 -123 41
-184 60 -93 30 -191 74 -289 128 -28 16 -86 69 -86 79 0 5 30 40 66 78 l67 70
26 -20 c192 -148 467 -263 701 -294 118 -16 119 -16 130 -55 14 -49 13 -75 -5
-118 -18 -43 -19 -82 -3 -135 10 -33 9 -44 -5 -68 -36 -60 -9 -126 60 -148 61
-20 149 24 157 78 2 14 -5 42 -15 62 -17 34 -18 39 -2 75 21 49 17 118 -8 167
-19 37 -20 41 -4 82 18 47 -5 39 213 75 156 27 419 138 555 235 26 19 51 34
57 34 10 0 130 -173 130 -189 0 -11 -83 -63 -175 -109 -75 -38 -201 -89 -324
-132 l-93 -32 -29 21 c-15 12 -32 21 -37 21 -11 0 -145 -111 -139 -116 2 -2
86 -22 188 -44 101 -22 195 -43 209 -46 22 -5 19 0 -19 35 -24 23 -42 43 -40
45 2 3 31 11 64 19 74 18 298 74 345 87 63 17 222 32 345 34 113 1 120 2 121
21 3 86 81 442 155 711 22 77 39 149 39 160 0 10 5 26 10 34 9 13 14 11 30
-12 30 -39 63 -75 55 -59 -7 11 -15 67 -31 206 -2 21 -6 46 -9 55 -2 8 -7 39
-10 68 -11 99 -14 100 -82 4 -60 -85 -61 -88 -46 -113 15 -26 14 -33 -38 -160
-61 -153 -223 -481 -246 -501 -13 -11 -27 0 -99 76 l-84 89 33 39 c96 118 154
206 211 323 83 168 110 256 153 495 8 44 9 45 56 54 36 7 57 6 80 -3 50 -21
96 -24 138 -11 34 12 46 11 93 -5 73 -25 108 -11 132 51 20 53 13 99 -21 136
-35 38 -65 43 -117 20 -39 -17 -46 -17 -66 -4 -33 22 -119 19 -174 -6 -42 -20
-49 -21 -81 -7 -34 14 -34 16 -41 87 -27 273 -156 577 -340 797 l-36 43 19 26
c11 15 31 40 44 57 l25 30 91 -88 c50 -48 95 -87 100 -87 5 0 30 23 56 52 l47
52 -91 86 c-89 83 -108 110 -75 110 9 0 38 12 64 26 152 83 101 289 -78 311
-82 9 -143 -37 -164 -125 -7 -29 -16 -52 -20 -52 -4 0 -49 38 -100 85 l-92 86
-50 -50 -49 -50 92 -100 93 -101 -31 -38 c-50 -64 -58 -68 -84 -45 -77 70
-297 187 -417 223 -41 12 -79 26 -85 30 -14 11 -163 40 -236 46 -74 5 -77 7
-95 50 -13 31 -12 37 6 71 25 47 28 148 5 180 -14 20 -14 25 3 52 26 43 18 94
-20 126 -36 31 -117 34 -160 8z m132 -18 c41 -21 49 -59 22 -108 -21 -38 -21
-38 -2 -70 26 -41 25 -102 0 -152 -24 -48 -25 -74 -4 -118 16 -33 19 -34 88
-41 230 -20 502 -123 698 -263 92 -65 252 -220 328 -317 162 -206 278 -515
293 -774 2 -42 4 -45 42 -58 53 -18 65 -18 116 6 54 24 96 25 150 4 38 -16 43
-16 75 0 48 22 71 20 99 -10 42 -45 27 -138 -23 -151 -14 -3 -46 2 -73 11 -46
17 -51 17 -94 0 -45 -17 -48 -17 -109 5 -61 22 -64 22 -124 5 -56 -16 -62 -20
-62 -44 0 -15 -7 -65 -15 -111 -52 -299 -192 -567 -410 -784 -241 -241 -534
-385 -868 -427 l-96 -12 -16 -45 c-20 -59 -19 -79 5 -126 25 -49 25 -100 1
-145 -18 -34 -18 -36 0 -72 25 -49 24 -70 -4 -96 -33 -31 -78 -37 -120 -17
-45 21 -52 50 -27 109 19 42 20 48 5 82 -19 46 -19 72 1 120 12 28 15 56 11
99 -9 92 -9 92 -90 99 -365 36 -722 219 -965 496 -207 237 -332 526 -360 835
l-7 79 -63 13 c-58 12 -68 11 -124 -9 -60 -20 -63 -20 -113 -3 -48 16 -54 16
-83 1 -68 -35 -119 -11 -129 61 -4 32 0 45 22 71 31 37 51 39 103 13 36 -18
38 -18 72 0 44 24 94 24 149 -1 52 -24 59 -24 121 -4 l48 16 7 61 c10 85 56
266 92 358 73 187 191 361 347 512 216 209 469 341 762 396 60 12 128 21 151
21 37 0 42 3 52 31 16 46 14 104 -6 160 -17 46 -17 52 0 98 16 47 16 50 -3 93
-23 52 -17 83 19 103 34 19 75 19 111 0z m1325 -480 c52 -51 15 -135 -59 -135
-42 0 -76 37 -76 82 0 39 40 78 80 78 19 0 40 -9 55 -25z m-2695 -50 c48 -51
11 -135 -60 -135 -41 0 -84 53 -76 94 13 65 91 89 136 41z"/>
<path d="M1938 3393 c-21 -5 -24 -33 -4 -33 15 0 26 -42 26 -101 0 -33 3 -39
21 -39 21 0 21 3 15 70 -6 59 -5 71 8 76 9 3 16 12 16 20 0 14 -43 17 -82 7z"/>
<path d="M2049 3396 c-2 -2 -3 -43 -1 -91 3 -70 6 -86 18 -83 8 2 15 6 15 11
-1 4 -1 43 -1 87 0 60 -3 80 -13 80 -8 0 -16 -2 -18 -4z"/>
<path d="M2124 3323 c-11 -102 -11 -97 7 -101 13 -2 18 9 24 55 l8 58 12 -51
c21 -91 32 -94 65 -24 13 28 27 50 30 50 4 0 3 -21 -1 -47 -7 -34 -6 -49 3
-54 21 -13 26 -1 33 69 4 37 9 75 12 85 4 15 0 18 -23 15 -22 -2 -33 -13 -52
-50 -27 -52 -42 -61 -42 -25 0 12 -5 39 -11 60 -8 29 -15 37 -34 37 -22 0 -24
-5 -31 -77z"/>
<path d="M1865 3380 c-6 -10 0 -98 11 -147 2 -13 12 -23 20 -23 14 0 15 11 9
83 -4 45 -9 85 -12 90 -6 10 -21 9 -28 -3z"/>
<path d="M2365 3357 c-2 -7 -13 -45 -24 -85 l-20 -73 22 -8 c59 -22 77 -22 77
-2 0 13 -8 21 -22 23 -15 2 -23 10 -23 23 0 14 6 19 20 17 11 -2 24 -5 29 -5
6 -1 11 6 13 15 3 11 -3 18 -19 20 -15 2 -23 10 -23 23 0 14 6 19 20 17 11 -2
25 -5 30 -5 6 -1 10 5 10 13 0 19 -84 45 -90 27z"/>
<path d="M1718 3353 c-21 -5 -21 0 0 -93 13 -57 22 -76 36 -78 16 -4 18 1 11
35 l-7 38 34 -32 c24 -23 37 -30 48 -23 12 8 11 13 -9 33 -19 22 -21 28 -10
45 10 15 10 29 3 49 -8 24 -15 28 -49 30 -22 0 -48 -1 -57 -4z m75 -37 c3 -7
0 -19 -6 -25 -13 -13 -37 -15 -37 -2 0 5 -3 16 -6 25 -5 12 0 16 19 16 14 0
27 -6 30 -14z"/>
<path d="M1574 3296 c-3 -8 -4 -49 -2 -90 2 -42 0 -76 -4 -76 -3 0 -23 29 -42
65 -42 74 -47 79 -70 62 -15 -11 -16 -19 -7 -57 19 -81 16 -88 -21 -54 -58 53
-65 56 -87 45 -19 -11 -19 -13 20 -81 44 -76 55 -88 71 -72 6 6 1 23 -16 51
-36 56 -33 59 14 17 57 -51 74 -49 65 10 -3 26 -9 54 -12 63 -4 14 -3 14 9 -1
7 -9 21 -30 30 -47 16 -30 18 -30 50 -17 19 8 34 23 36 34 4 29 55 45 75 25
10 -10 20 -12 31 -6 14 8 8 19 -44 76 -61 67 -86 80 -96 53z m66 -77 c0 -5 -7
-9 -15 -9 -9 0 -15 9 -15 21 0 18 2 19 15 9 8 -7 15 -16 15 -21z"/>
<path d="M2546 3213 c-28 -59 -34 -78 -24 -85 20 -12 25 -10 38 22 10 25 16
28 41 23 36 -7 69 19 69 54 0 23 -49 63 -76 63 -7 0 -28 -35 -48 -77z m81 21
c8 -20 -13 -42 -27 -28 -12 12 -3 44 11 44 5 0 12 -7 16 -16z"/>
<path d="M2720 3203 c-54 -20 -81 -83 -56 -131 39 -75 151 -60 172 23 16 64
-56 130 -116 108z m62 -50 c22 -20 23 -51 1 -75 -20 -22 -51 -23 -75 -1 -24
21 -23 48 2 73 24 24 47 25 72 3z"/>
<path d="M1945 3120 c-538 -62 -945 -516 -945 -1055 0 -775 827 -1286 1533
-947 659 316 810 1174 298 1690 -231 234 -561 350 -886 312z m347 -50 c367
-79 663 -354 772 -718 27 -90 53 -290 39 -301 -4 -4 -52 -16 -106 -26 -103
-18 -163 -16 -236 10 -61 21 -189 29 -241 15 -87 -25 -125 -28 -178 -18 -29 6
-54 9 -56 7 -3 -2 -30 -121 -61 -264 -32 -143 -67 -303 -79 -355 l-21 -95 -47
-3 -46 -3 -92 375 -92 375 -30 10 c-48 17 -128 13 -186 -9 -70 -27 -143 -25
-232 5 -89 30 -106 31 -190 4 -70 -22 -117 -19 -159 8 -22 14 -23 19 -16 81
25 235 131 456 297 619 89 88 109 104 210 164 223 134 484 175 750 119z m-901
-1026 c90 -31 175 -34 239 -8 41 17 171 26 184 14 2 -3 7 -17 11 -31 l6 -26
-53 9 c-46 8 -65 6 -132 -16 -98 -32 -138 -32 -251 3 -85 27 -93 28 -135 14
-113 -35 -136 -37 -184 -19 -38 15 -46 22 -46 43 0 22 3 24 23 19 54 -17 105
-16 167 3 84 25 84 25 171 -5z m1378 -45 c74 -22 142 -24 231 -4 90 20 109 19
103 -3 -3 -15 -28 -23 -123 -41 l-119 -23 -93 25 c-135 37 -198 41 -287 16
-49 -14 -92 -20 -123 -17 -56 6 -62 10 -54 35 6 18 11 18 54 10 38 -8 62 -6
122 11 89 24 190 21 289 -9z m-1366 -44 c94 -30 169 -32 239 -5 56 21 140 26
181 11 14 -6 26 -20 29 -35 l5 -25 -67 6 c-53 5 -78 1 -124 -16 -77 -29 -151
-27 -252 6 l-82 27 -89 -22 c-91 -22 -123 -21 -180 10 -28 14 -33 54 -5 43 41
-17 99 -16 157 3 80 26 96 26 188 -3z m1307 -20 c130 -36 168 -39 274 -17 55
12 102 19 106 17 4 -2 5 -17 2 -33 -4 -27 -7 -29 -86 -40 -114 -17 -171 -15
-244 7 -72 22 -191 20 -319 -5 -51 -10 -85 -11 -114 -5 -50 11 -51 13 -44 43
6 24 9 25 73 21 44 -4 84 0 117 10 65 20 167 21 235 2z m-1299 -71 c95 -34
182 -36 259 -6 89 35 193 24 202 -22 5 -23 5 -23 -81 -19 -71 4 -95 2 -139
-16 -71 -28 -144 -27 -230 4 -80 29 -122 31 -182 10 -94 -33 -190 -5 -190 55
0 4 17 2 38 -6 50 -18 96 -16 162 6 73 24 75 24 161 -6z m1334 -24 c79 -24
171 -27 264 -10 35 6 65 9 67 7 2 -2 -1 -18 -7 -34 l-10 -31 -122 -7 c-109 -6
-129 -4 -192 15 -59 19 -84 22 -160 17 -49 -3 -121 -13 -159 -21 -54 -12 -81
-13 -119 -4 -46 9 -48 11 -42 36 4 15 7 28 8 29 1 1 24 -4 50 -10 37 -8 63 -8
110 3 34 7 103 16 152 20 50 4 90 7 90 8 0 1 32 -7 70 -18z m-1337 -65 c90
-31 180 -33 254 -5 87 33 220 20 231 -22 4 -13 1 -18 -7 -15 -50 19 -105 17
-179 -7 -91 -30 -122 -32 -202 -10 -33 9 -81 23 -108 30 -44 12 -54 11 -124
-12 -75 -24 -121 -25 -149 -2 -7 5 -17 7 -24 6 -7 -2 -16 7 -21 20 -8 21 -7
23 14 16 34 -12 118 -6 162 10 55 21 71 20 153 -9z m1326 -25 c82 -23 113 -25
230 -15 85 7 89 7 81 -11 -4 -11 -10 -27 -12 -36 -7 -23 -29 -23 -200 3 -161
24 -271 21 -354 -10 -66 -25 -115 -26 -186 -4 -50 16 -54 19 -48 42 4 14 7 27
8 28 1 1 24 -4 50 -10 38 -8 62 -8 110 3 34 8 100 17 147 20 47 4 90 7 95 8 6
1 41 -7 79 -18z"/>
<path d="M1983 2859 c3 -34 2 -57 -2 -53 -4 5 -24 30 -45 57 -20 26 -42 47
-48 47 -14 0 -2 -141 14 -155 8 -7 9 7 4 53 -3 34 -4 62 -2 62 2 0 23 -25 46
-55 28 -36 47 -52 53 -46 12 12 -2 151 -15 151 -7 0 -9 -22 -5 -61z"/>
<path d="M2111 2851 c-13 -84 -14 -91 -2 -91 5 0 12 23 16 50 4 28 10 50 14
50 4 0 12 -23 17 -52 5 -28 14 -53 19 -55 6 -2 23 20 38 47 40 72 44 66 20
-36 -6 -29 34 -40 59 -17 25 23 74 6 71 -24 -3 -24 35 -63 45 -47 74 108 73
107 94 87 25 -25 14 -57 -18 -50 -20 3 -24 -1 -29 -35 -9 -52 10 -74 19 -23 4
19 11 33 15 31 4 -3 18 2 30 10 30 22 24 60 -14 90 l-31 23 -39 -59 c-22 -33
-42 -60 -45 -60 -3 0 -4 34 -2 76 5 107 -6 113 -69 41 -28 -31 -54 -57 -58
-57 -4 0 -2 30 5 67 19 102 2 112 -47 29 -18 -30 -36 -53 -40 -50 -4 2 -10 25
-14 50 -9 60 -14 74 -30 74 -7 0 -16 -27 -24 -69z m259 -56 c0 -26 -7 -29 -35
-19 -14 6 -14 8 1 25 23 26 34 24 34 -6z"/>
<path d="M1820 2888 c1 -21 28 -130 34 -136 3 -3 8 -3 11 0 9 8 -25 148 -36
148 -5 0 -9 -6 -9 -12z"/>
<path d="M1702 2858 c-7 -7 -12 -25 -12 -40 0 -33 -2 -33 -35 -12 -13 9 -32
14 -42 12 -13 -3 -7 -10 25 -26 l43 -23 -7 -51 c-8 -59 9 -61 20 -2 4 19 10
34 14 32 4 -2 19 -10 35 -17 15 -8 30 -11 35 -6 4 4 3 9 -3 11 -5 2 -24 13
-41 23 -30 18 -31 21 -24 63 9 49 8 52 -8 36z"/>
<path d="M1560 2782 c0 -4 15 -29 34 -55 35 -49 37 -71 9 -81 -14 -6 -30 9
-82 74 -10 14 -22 22 -26 18 -8 -7 58 -98 80 -111 19 -10 63 12 71 35 5 18 -9
44 -60 111 -14 18 -26 22 -26 9z"/>
<path d="M2547 2658 c-31 -24 -57 -48 -57 -54 0 -15 48 -59 57 -51 3 4 -2 16
-12 27 -18 20 -18 21 -1 38 16 16 18 16 36 -5 27 -34 45 -28 21 5 -15 22 -17
32 -9 40 17 17 27 15 48 -10 27 -34 35 -14 9 21 -13 17 -26 31 -29 31 -4 0
-32 -19 -63 -42z"/>
<path d="M1411 2643 c0 -5 26 -29 58 -55 l58 -47 27 28 c15 16 23 31 18 35 -5
3 -17 -3 -27 -14 -17 -19 -18 -19 -68 20 -48 39 -68 48 -66 33z"/>
<path d="M2008 2543 c-23 -25 -88 -222 -88 -265 0 -32 48 -118 66 -118 3 0 19
11 36 25 29 24 58 33 58 18 1 -5 12 -21 25 -38 l24 -29 27 24 c35 33 64 96 64
141 0 36 -73 199 -89 199 -4 0 -13 -21 -19 -47 -26 -99 -46 -94 -58 14 -3 34
-12 69 -18 78 -11 15 -13 15 -28 -2z m-45 -296 c-11 -18 -33 25 -27 52 12 53
17 55 25 7 4 -28 5 -54 2 -59z"/>
<path d="M2036 2171 c-10 -11 -15 -25 -11 -30 7 -12 58 -15 68 -5 11 11 -4 33
-19 27 -10 -4 -12 0 -8 11 8 22 -9 20 -30 -3z"/>
<path d="M2843 3037 c-49 -59 -51 -63 -35 -80 23 -26 50 -39 63 -31 7 4 3 14
-10 28 l-21 22 46 52 c42 48 49 73 21 71 -7 0 -35 -28 -64 -62z"/>
<path d="M1165 3050 c-7 -11 11 -36 70 -101 l36 -40 34 27 c28 21 33 29 24 41
-10 11 -15 11 -31 -4 -19 -17 -21 -16 -66 35 -48 54 -56 59 -67 42z"/>
<path d="M2960 3006 c-11 -26 -20 -50 -20 -54 0 -3 -12 -19 -27 -34 -40 -41
-18 -57 32 -24 21 14 41 26 45 26 4 0 24 7 45 15 29 13 34 19 25 30 -9 11 -16
11 -46 -1 -38 -16 -40 -14 -20 24 12 23 12 30 0 46 -12 18 -15 16 -34 -28z"/>
<path d="M1074 2966 c-7 -17 68 -170 81 -165 6 2 9 16 8 30 -3 32 28 64 56 56
24 -6 50 9 36 21 -11 11 -155 72 -168 72 -4 0 -10 -6 -13 -14z m76 -46 c12 -7
12 -12 2 -22 -10 -10 -15 -10 -22 2 -19 29 -9 39 20 20z"/>
<path d="M3066 2931 c-4 -5 -4 -16 0 -24 3 -9 -12 -28 -45 -53 -28 -22 -50
-44 -51 -51 -1 -29 25 -21 75 21 30 27 56 42 60 36 8 -13 35 -13 35 1 0 14
-50 79 -61 79 -4 0 -10 -4 -13 -9z"/>
<path d="M994 2865 c-4 -10 1 -22 12 -30 64 -46 64 -44 -8 -45 -43 0 -68 -4
-70 -12 -5 -13 132 -119 145 -111 17 10 5 32 -33 58 -22 15 -40 30 -40 32 0 3
28 2 63 -2 50 -5 66 -4 75 8 11 13 3 22 -50 59 -89 62 -87 61 -94 43z"/>
<path d="M3100 2794 c-30 -19 -62 -39 -70 -44 -12 -7 -12 -12 -2 -32 27 -49
41 -63 54 -50 8 8 7 17 -6 36 -15 24 -15 26 3 35 15 9 22 6 35 -14 10 -15 22
-22 31 -18 14 5 14 8 -1 30 -14 23 -14 27 -1 41 14 14 17 13 28 -11 13 -29 17
-31 35 -19 8 5 4 19 -12 45 -14 20 -28 37 -32 37 -4 0 -32 -16 -62 -36z"/>
<path d="M866 2659 c-31 -37 -33 -77 -6 -112 41 -51 126 -44 155 13 33 63 -11
130 -85 130 -30 0 -44 -6 -64 -31z m104 -19 c24 -24 25 -47 3 -72 -20 -22 -51
-23 -75 -1 -25 22 -23 59 4 77 30 21 44 20 68 -4z"/>
<path d="M3139 2661 c-20 -20 -29 -39 -29 -61 0 -34 46 -90 74 -90 23 0 20 16
-10 43 -33 31 -30 76 5 94 40 19 86 -12 77 -52 -3 -11 -1 -27 5 -35 8 -13 11
-12 24 4 19 25 19 40 0 76 -30 59 -98 68 -146 21z"/>
<path d="M3248 2493 c-53 -16 -78 -29 -78 -39 0 -13 8 -14 39 -9 34 6 39 4 44
-16 7 -25 -6 -39 -35 -39 -21 0 -33 -19 -21 -31 13 -13 173 30 173 47 0 20
-16 25 -46 14 -31 -12 -30 -13 -39 21 -6 23 -3 27 24 32 22 5 31 12 31 27 0
24 5 24 -92 -7z"/>
<path d="M795 2499 c-10 -14 -9 -14 82 -47 69 -24 83 -26 88 -14 7 19 11 16
-69 46 -76 29 -92 31 -101 15z"/>
<path d="M770 2419 c-6 -23 -8 -48 -5 -58 6 -14 8 -14 20 3 14 19 16 19 80 1
36 -9 68 -15 72 -12 15 16 -10 35 -62 47 -43 10 -59 19 -66 37 -13 34 -27 28
-39 -18z"/>
<path d="M3300 2339 c-25 -5 -55 -12 -67 -15 -30 -6 -30 -34 0 -34 12 0 37 4
55 9 17 5 32 8 32 6 0 -3 -20 -23 -45 -46 -42 -39 -55 -62 -37 -72 4 -2 43 3
87 12 57 12 80 21 80 31 0 16 -20 18 -75 7 l-35 -7 48 48 c70 71 62 82 -43 61z"/>
<path d="M840 2314 c-92 -17 -100 -20 -100 -37 0 -19 152 -109 164 -97 6 6 4
16 -7 28 -28 31 -19 82 14 82 12 0 19 7 19 20 0 11 -3 19 -7 19 -5 -1 -42 -8
-83 -15z m10 -48 c0 -22 -13 -26 -33 -11 -18 13 -18 13 0 18 31 8 33 7 33 -7z"/>
<path d="M725 2160 c-10 -16 16 -29 60 -32 l50 -3 -58 -34 c-85 -49 -76 -65
36 -69 70 -2 87 0 87 11 0 15 -73 32 -91 22 -5 -4 -9 -2 -9 2 0 5 24 22 53 39
78 44 70 58 -36 64 -49 3 -90 3 -92 0z"/>
<path d="M3295 2161 c-48 -5 -61 -10 -63 -25 -4 -18 1 -19 58 -13 35 4 76 7
91 7 22 0 29 5 29 20 0 22 -1 22 -115 11z"/>
<path d="M3283 2085 c-36 -15 -53 -41 -53 -82 0 -30 24 -73 41 -73 12 0 12 36
-1 60 -16 30 28 75 64 66 36 -9 54 -48 34 -78 -12 -20 -14 -30 -9 -55 2 -13
49 40 55 62 17 69 -63 130 -131 100z"/>
<path d="M776 1941 c-4 -5 -9 -36 -12 -69 -8 -74 6 -117 56 -178 38 -46 56
-84 40 -84 -5 0 -12 5 -15 10 -8 12 -105 13 -124 1 -12 -8 -10 -17 15 -52 40
-58 106 -99 160 -99 40 0 44 -3 68 -46 14 -26 26 -49 26 -53 0 -3 -27 -4 -61
-3 -34 2 -65 0 -70 -5 -13 -13 52 -96 96 -123 23 -15 54 -23 93 -24 32 -2 64
-6 70 -10 17 -10 15 -26 -3 -26 -19 0 -85 -32 -85 -41 0 -12 63 -61 97 -76 19
-7 69 -13 118 -13 78 0 90 -3 121 -26 19 -15 34 -30 34 -34 0 -4 -15 -11 -32
-14 -18 -4 -41 -13 -51 -20 -17 -13 -16 -15 8 -44 14 -17 42 -36 62 -43 41
-13 127 -6 150 13 13 10 19 7 36 -17 47 -66 73 -85 116 -85 52 0 53 15 2 24
-31 5 -48 16 -80 55 -40 48 -41 51 -41 124 0 67 -3 79 -26 107 -28 33 -102 76
-112 65 -4 -4 -7 -35 -7 -69 l0 -63 -90 61 c-49 33 -93 66 -97 71 -4 6 -7 33
-6 60 l1 50 6 -55 c6 -51 8 -55 31 -52 13 1 27 6 30 10 3 4 13 13 23 21 15 12
17 11 17 -12 0 -14 -7 -28 -16 -31 -8 -3 -12 -2 -9 4 7 12 -2 12 -30 1 -19 -7
-18 -8 5 -21 14 -7 31 -20 40 -28 13 -14 15 -10 18 38 2 30 1 64 -3 77 -6 24
-78 83 -101 83 -18 0 -37 -66 -30 -102 3 -16 2 -28 -2 -26 -25 11 -82 55 -87
67 -3 7 4 42 16 78 19 54 20 69 11 101 -7 21 -23 49 -36 61 l-25 23 -28 -51
c-15 -28 -30 -51 -33 -50 -7 0 -80 106 -80 116 0 4 4 2 9 -5 11 -19 55 83 55
130 1 37 -27 87 -52 96 -6 2 -24 -17 -39 -42 -16 -25 -31 -46 -35 -46 -15 0
-20 50 -9 81 15 44 14 95 -4 128 -17 35 -91 95 -99 82z m64 -57 c17 -20 29
-42 26 -49 -3 -8 0 -15 6 -17 8 -3 8 -9 0 -24 -8 -12 -11 -14 -12 -5 0 8 -14
26 -31 41 -27 22 -30 29 -21 47 11 20 7 33 -9 33 -4 0 -6 -35 -5 -77 3 -64 7
-80 25 -94 11 -9 21 -23 22 -31 0 -10 2 -10 6 0 3 7 -2 21 -10 30 -8 9 -17 30
-21 46 -6 25 -5 28 7 18 8 -7 17 -9 20 -5 4 3 7 -1 7 -10 0 -9 5 -17 11 -17 7
0 8 -12 4 -32 -11 -48 -15 -51 -37 -31 -33 30 -48 69 -49 131 -2 92 11 102 61
46z m154 -216 c-8 -13 -24 1 -18 16 3 8 1 16 -3 19 -14 9 -32 -7 -36 -31 -4
-25 -27 -54 -27 -34 0 7 4 12 10 12 5 0 7 6 4 13 -2 7 5 26 17 41 l22 27 18
-27 c10 -15 16 -31 13 -36z m1 -56 c-8 -44 -26 -83 -37 -80 -14 5 -60 88 -49
88 6 0 11 -5 11 -11 0 -5 5 -7 12 -3 6 4 8 3 5 -3 -4 -6 0 -23 7 -39 l15 -27
12 26 c10 22 9 34 -3 66 l-16 40 25 -12 c21 -9 24 -15 18 -45z m-197 -37 c-6
-47 2 -61 28 -51 12 4 13 10 4 26 -8 14 -8 20 0 20 6 0 8 5 4 12 -4 6 -3 8 4
5 5 -4 8 -15 5 -26 -3 -11 2 -21 13 -25 26 -10 30 2 12 35 -29 50 -10 32 27
-27 20 -31 34 -58 32 -60 -2 -3 -12 7 -21 22 -18 26 -28 26 -32 -1 -1 -8 3
-15 9 -15 5 0 8 -2 5 -5 -3 -3 -24 2 -47 11 -42 17 -125 99 -115 115 3 5 21 9
41 9 l36 0 -5 -45z m42 30 c0 -2 -6 -5 -13 -8 -8 -3 -14 1 -14 8 0 7 6 11 14
8 7 -3 13 -6 13 -8z m296 -196 c7 -43 -13 -122 -29 -116 -14 4 -57 76 -57 95
0 7 5 10 10 7 6 -4 8 -10 6 -14 -8 -12 24 -52 36 -45 7 4 8 -2 3 -17 -4 -13
-4 -21 0 -17 4 4 9 18 11 30 1 13 6 39 10 58 l7 35 -21 -23 c-12 -14 -23 -19
-27 -12 -3 5 -2 10 4 10 19 0 30 34 15 48 -11 10 -16 7 -28 -15 -8 -16 -15
-24 -16 -20 0 5 8 22 17 38 17 28 18 28 36 11 9 -10 20 -34 23 -53z m-26 -54
c0 -12 -19 -12 -23 0 -4 9 -1 12 9 8 7 -3 14 -7 14 -8z m-160 -9 c0 -8 13 -24
30 -37 37 -30 38 -39 3 -30 -18 5 -28 14 -28 27 0 10 -7 19 -15 19 -8 1 -14 6
-12 13 1 7 -5 12 -13 12 -8 0 -15 -9 -15 -20 0 -11 5 -19 12 -17 7 1 12 -3 13
-10 0 -6 13 -21 28 -33 26 -21 29 -21 52 -6 39 26 31 57 -19 76 -16 6 -26 13
-23 16 13 13 63 -24 88 -66 15 -25 28 -48 28 -52 2 -14 -70 -8 -105 8 -34 16
-104 86 -104 104 0 6 18 10 40 10 27 0 40 -4 40 -14z m358 -99 c12 -11 22 -25
22 -31 0 -6 -5 -3 -11 7 -12 20 -31 13 -22 -8 5 -15 -12 -21 -20 -7 -2 4 -3 2
-1 -4 1 -6 -1 -16 -6 -23 -5 -9 -9 -2 -12 18 -4 25 -1 31 13 31 10 0 21 5 24
11 4 6 1 10 -6 8 -8 -1 -21 -1 -29 0 -13 1 -13 2 0 11 13 8 12 10 -2 10 -10 0
-18 5 -18 10 0 13 36 -5 68 -33z m-163 -86 c3 -6 30 -24 61 -41 30 -18 53 -35
50 -37 -3 -3 -12 0 -20 6 -17 14 -40 5 -30 -11 4 -6 22 -8 40 -5 19 3 34 2 34
-4 0 -11 -86 -10 -120 2 -25 9 -25 9 3 5 18 -2 27 1 27 10 0 8 6 14 12 14 7 0
2 7 -10 16 -21 14 -23 13 -46 -13 l-24 -27 -37 28 c-35 27 -37 30 -20 42 11 8
23 10 29 5 6 -4 22 -11 36 -14 l25 -6 -24 20 c-17 14 -19 19 -8 19 9 0 18 -4
22 -9z m315 -25 c0 -3 -4 -8 -10 -11 -5 -3 -10 -1 -10 4 0 6 5 11 10 11 6 0
10 -2 10 -4z m75 -52 c14 -22 14 -24 0 -24 -11 0 -15 -7 -13 -22 2 -15 9 -22
21 -22 14 2 17 -6 17 -42 l0 -44 -59 48 c-33 26 -58 49 -55 51 2 2 12 -3 22
-12 21 -19 42 -23 24 -5 -19 19 -14 32 6 17 15 -13 16 -12 3 4 -16 20 -58 46
-47 29 3 -6 2 -13 -4 -17 -6 -4 -10 7 -10 26 l0 32 24 -23 c15 -13 32 -20 40
-17 18 7 22 27 5 27 -5 0 -7 -4 -4 -10 3 -6 -1 -7 -9 -4 -9 3 -16 10 -16 16 0
5 5 6 12 2 7 -5 9 -2 5 9 -9 24 19 10 38 -19z m-48 -146 c38 -29 50 -44 41
-49 -21 -13 -86 -21 -118 -14 -31 7 -90 50 -90 66 0 7 78 36 104 38 5 1 33
-18 63 -41z"/>
<path d="M823 1883 c4 -6 2 -13 -5 -15 -9 -3 -8 -10 5 -23 15 -14 21 -15 30
-5 9 10 9 11 -2 5 -11 -6 -13 -4 -8 8 3 9 -1 21 -11 29 -9 8 -13 8 -9 1z"/>
<path d="M840 1520 c-9 -6 -10 -10 -3 -10 6 0 15 5 18 10 8 12 4 12 -15 0z"/>
<path d="M1035 1270 c3 -6 -4 -14 -17 -19 -22 -9 -21 -10 9 -10 26 -1 30 2 26
19 -3 11 -10 20 -15 20 -5 0 -6 -5 -3 -10z"/>
<path d="M1072 1141 c-11 -6 -10 -10 0 -19 11 -8 14 -7 14 9 0 10 0 19 -1 19
0 0 -6 -4 -13 -9z"/>
<path d="M1110 1096 c7 -7 14 -6 21 1 9 9 7 12 -9 10 -14 -1 -18 -5 -12 -11z"/>
<path d="M1506 1002 c-3 -5 3 -16 14 -24 17 -15 19 -15 25 -1 8 22 -27 44 -39
25z"/>
<path d="M1406 949 c5 -9 -1 -10 -22 -5 -28 7 -28 7 -9 -9 19 -16 18 -16 -7
-1 -36 21 -45 3 -12 -23 18 -14 35 -19 53 -15 17 4 22 3 13 -4 -9 -6 -3 -9 18
-9 21 0 30 5 30 16 0 12 -2 13 -9 3 -6 -10 -10 -10 -21 3 -11 13 -8 15 18 15
24 0 30 -4 26 -15 -5 -11 1 -15 17 -15 22 1 21 3 -15 35 -37 33 -96 50 -80 24z"/>
<path d="M3284 1851 c-65 -48 -75 -89 -52 -201 10 -51 9 -59 -8 -83 -25 -35
-34 -34 -34 4 0 34 -13 64 -43 97 -27 29 -32 28 -56 -12 -28 -44 -26 -89 5
-156 29 -62 27 -77 -19 -158 l-32 -57 -5 45 c-3 25 -16 62 -29 83 l-23 38 -29
-27 c-43 -41 -46 -82 -15 -172 l26 -77 -27 -22 c-61 -50 -113 -84 -113 -74 0
5 5 13 10 16 15 9 12 108 -4 130 -13 19 -15 18 -56 -9 -57 -37 -73 -79 -64
-165 l6 -67 -54 -36 c-85 -56 -142 -83 -135 -64 4 9 2 16 -3 16 -6 0 -10 -4
-10 -8 0 -5 -11 -14 -25 -20 -25 -11 -25 -11 -25 31 0 79 17 115 68 148 34 21
48 26 54 17 4 -7 3 -17 -2 -22 -4 -4 -6 -15 -3 -23 4 -10 0 -14 -13 -12 -10 2
-25 0 -31 -4 -7 -5 -13 -5 -13 -2 0 10 28 35 39 35 6 0 11 5 11 10 0 17 -16
11 -54 -22 -32 -29 -37 -40 -41 -90 -6 -58 2 -71 25 -43 7 8 9 15 4 15 -14 0
-15 68 -2 76 8 5 9 2 5 -9 -4 -11 -1 -17 8 -17 8 0 15 -4 15 -10 0 -5 -8 -6
-17 -3 -15 6 -16 4 -6 -9 7 -8 10 -18 6 -21 -3 -4 -2 -7 4 -7 16 0 44 36 36
45 -5 4 -2 5 5 1 11 -6 8 -13 -9 -32 -12 -13 -17 -24 -11 -24 6 0 22 15 36 33
21 27 26 45 26 90 0 31 -4 59 -10 62 -15 9 -85 -31 -114 -65 -23 -28 -26 -40
-26 -105 0 -66 2 -74 17 -68 14 5 13 1 -6 -25 -14 -21 -31 -32 -46 -32 -13 0
-27 -5 -30 -10 -10 -16 58 -12 81 4 18 13 27 13 70 0 71 -22 125 -11 169 33
19 19 35 38 35 42 0 3 -20 14 -45 24 -25 11 -45 22 -45 25 0 4 20 20 45 36 42
26 51 28 108 22 78 -8 153 12 202 55 19 17 35 35 35 39 0 10 -75 40 -100 40
-27 0 -25 5 13 40 29 27 36 29 83 24 63 -7 120 15 179 71 l40 38 -35 15 c-44
18 -114 20 -135 2 -29 -24 -25 -3 11 58 37 62 37 62 83 62 61 0 115 32 163 95
46 62 47 62 -42 64 -27 0 -50 5 -50 11 0 5 15 30 34 54 45 59 60 107 53 167
-10 79 -16 84 -63 50z m39 -5 c4 -10 1 -13 -7 -10 -20 8 -63 -43 -71 -82 -3
-20 -9 -34 -11 -31 -14 13 19 88 49 111 38 31 34 29 40 12z m6 -78 c-1 -29 -4
-43 -6 -31 -3 14 -9 20 -19 16 -20 -8 -18 24 4 36 9 6 13 11 9 11 -8 0 0 20 9
20 2 0 3 -24 3 -52z m-39 26 c0 -3 -5 -14 -10 -25 -9 -16 -6 -23 16 -42 25
-22 26 -24 11 -53 -18 -36 -54 -70 -54 -52 0 7 -3 24 -7 38 -8 24 -7 24 7 5
13 -16 17 -17 31 -6 9 7 14 17 11 21 -3 5 0 10 7 12 9 3 8 9 -4 21 -18 18 -32
8 -22 -16 3 -8 1 -18 -4 -21 -5 -3 -12 8 -14 24 -3 17 -1 30 3 30 4 0 5 9 2
20 -6 24 2 50 17 50 5 0 10 -3 10 -6z m-137 -156 c29 -38 30 -99 4 -137 -12
-17 -25 -31 -29 -31 -9 0 -42 89 -35 96 3 3 8 -8 12 -25 4 -17 11 -31 16 -31
6 0 7 -4 4 -10 -13 -21 11 -8 27 14 16 22 16 24 0 42 -19 21 -27 78 -10 68 6
-4 9 -1 6 7 -6 17 -30 19 -40 4 -12 -16 -9 -25 7 -25 15 0 22 -19 8 -21 -5 0
-16 -2 -25 -4 -22 -4 -22 -5 -2 45 18 45 28 46 57 8z m135 -90 c10 15 64 11
69 -5 6 -18 -59 -85 -102 -104 -41 -19 -95 -25 -95 -11 0 12 30 54 68 94 26
27 38 34 44 25 6 -9 10 -9 16 1z m-143 -8 c3 -6 -1 -7 -9 -4 -18 7 -21 14 -7
14 6 0 13 -4 16 -10z m-120 -210 c0 -38 -32 -120 -47 -120 -4 0 -8 5 -8 10 0
6 5 10 11 10 6 0 9 6 6 14 -3 8 1 17 9 20 8 3 14 10 14 16 0 6 -6 8 -12 4 -9
-5 -8 -2 1 10 10 12 11 20 3 28 -8 8 -8 17 -1 30 11 20 -4 58 -23 58 -7 0 -6
-5 2 -15 14 -17 4 -39 -15 -31 -8 3 -16 -3 -18 -12 -4 -13 -5 -12 -6 4 0 12 9
34 20 49 l22 27 21 -33 c11 -18 21 -49 21 -69z m-50 -11 c18 -8 18 -9 -4 -5
-17 4 -21 2 -13 -6 6 -6 8 -17 5 -26 -4 -9 -2 -13 4 -9 7 5 9 -1 5 -15 -5 -22
-6 -22 -18 7 -15 34 -18 65 -6 64 4 0 16 -5 27 -10z m241 -39 l27 -11 -21 -22
c-11 -12 -36 -31 -54 -41 l-33 -19 26 25 c15 14 34 28 43 31 18 7 22 27 6 27
-5 0 -10 -4 -10 -10 0 -5 -7 -7 -16 -3 -13 5 -13 7 -2 14 8 6 -2 9 -30 9 -36
0 -47 -6 -82 -41 -22 -23 -40 -45 -40 -50 0 -5 -5 -9 -11 -9 -15 0 42 76 71
94 29 18 87 21 126 6z m-85 -19 c-11 -7 -9 -10 8 -16 12 -3 19 -10 16 -15 -3
-5 -14 -2 -25 7 -19 17 -18 33 3 33 8 0 7 -3 -2 -9z m-13 -57 c10 -22 9 -24
-11 -23 -12 0 -16 3 -9 6 6 2 12 9 12 15 0 6 -6 8 -13 5 -7 -3 -13 3 -13 13 0
24 21 15 34 -16z m-288 13 c0 -7 -9 -13 -21 -13 -19 0 -19 1 -3 13 10 7 19 13
21 13 2 0 3 -6 3 -13z m-30 -47 c0 -22 -19 -38 -21 -18 -1 7 -1 16 0 21 2 13
-11 7 -25 -10 -19 -25 -17 -43 4 -37 16 5 16 5 0 -6 -10 -6 -18 -20 -18 -32 0
-17 4 -19 25 -14 14 4 25 4 25 1 0 -3 -11 -10 -25 -15 -14 -5 -25 -14 -25 -20
0 -20 57 21 59 43 1 4 1 15 2 25 0 10 3 12 6 4 2 -6 10 -9 16 -5 8 5 8 2 0 -9
-7 -8 -11 -17 -8 -20 3 -3 -14 -21 -37 -40 l-43 -35 -3 72 c-2 60 1 75 18 98
23 28 50 27 50 -3z m273 13 c-7 -2 -19 -2 -25 0 -7 3 -2 5 12 5 14 0 19 -2 13
-5z m-233 -35 c0 -23 -3 -29 -9 -19 -8 12 -4 51 5 51 2 0 4 -15 4 -32z m-60
-42 c0 -3 -4 -8 -10 -11 -5 -3 -10 -1 -10 4 0 6 5 11 10 11 6 0 10 -2 10 -4z
m160 -27 c0 -5 -4 -8 -10 -4 -13 8 -50 -17 -50 -34 0 -8 -3 -11 -6 -8 -4 4
-21 -4 -38 -16 l-31 -22 50 -6 50 -6 -62 0 c-35 0 -63 1 -63 3 0 2 30 26 66
54 65 49 94 61 94 39z m54 -11 c-3 -5 -12 -4 -20 3 -19 16 -18 18 6 12 11 -3
17 -9 14 -15z m19 -30 c-21 -23 -59 -46 -49 -29 5 7 1 9 -8 5 -18 -7 -19 -3
-10 20 6 16 35 23 33 9 -4 -22 3 -24 21 -8 11 10 17 22 13 28 -4 6 -1 7 6 3 9
-6 8 -13 -6 -28z m-84 -22 c1 -6 -5 -1 -13 9 -8 11 -12 24 -8 29 5 9 20 -17
21 -38z m-336 -42 c-4 -10 -9 -12 -15 -6 -12 12 -1 35 12 27 5 -3 6 -13 3 -21z
m97 -100 c34 -14 38 -19 30 -35 -24 -45 -128 -64 -194 -36 l-29 13 69 37 c38
20 72 37 76 37 4 0 26 -7 48 -16z"/>
<path d="M3162 1570 c0 -14 2 -19 5 -12 2 6 2 18 0 25 -3 6 -5 1 -5 -13z"/>
<path d="M3296 1542 c-10 -9 -7 -24 3 -17 5 3 13 1 16 -5 7 -11 35 5 35 19 0
8 -47 11 -54 3z"/>
<path d="M3250 1529 c0 -5 5 -7 12 -3 7 4 8 3 4 -4 -4 -6 -12 -9 -19 -7 -7 2
-27 -16 -46 -42 l-34 -46 38 6 c22 4 43 13 47 21 5 8 14 13 22 10 16 -6 40 21
31 36 -3 6 -12 7 -18 4 -7 -4 -9 -4 -5 1 9 9 -9 35 -23 35 -5 0 -9 -5 -9 -11z
m8 -49 c3 -9 -2 -11 -17 -7 -11 3 -19 1 -16 -3 3 -5 1 -11 -5 -15 -14 -9 -13
18 2 33 14 14 30 11 36 -8z"/>
<path d="M2624 868 c-5 -8 -2 -9 9 -5 9 3 19 2 22 -3 3 -4 -7 -7 -22 -5 -30 4
-124 -36 -102 -44 7 -2 15 1 17 8 2 6 22 11 45 10 23 0 36 -3 30 -6 -25 -9
-13 -24 16 -20 27 5 71 34 71 48 0 4 -7 10 -16 13 -8 3 -13 2 -10 -2 2 -4 -2
-16 -11 -27 -15 -20 -15 -20 -13 0 4 35 0 45 -14 45 -8 0 -18 -5 -22 -12z"/>
<path d="M2560 809 c0 -5 5 -7 10 -4 6 3 10 8 10 11 0 2 -4 4 -10 4 -5 0 -10
-5 -10 -11z"/>
<path d="M2245 873 c-12 -11 -15 -25 -11 -49 4 -18 2 -35 -4 -39 -29 -18 10
-85 49 -85 11 0 33 11 48 24 28 25 28 25 11 55 -10 18 -13 33 -7 36 15 10 10
41 -9 58 -24 22 -56 22 -77 0z m61 -24 c3 -6 0 -17 -7 -25 -18 -17 -44 -2 -36
20 7 18 33 21 43 5z m3 -77 c12 -22 -3 -42 -30 -42 -22 0 -33 28 -18 46 16 19
36 17 48 -4z"/>
<path d="M1952 857 c-34 -36 -22 -97 18 -97 24 0 26 -13 5 -30 -20 -17 -19
-30 3 -30 9 0 29 19 43 43 42 66 44 83 15 112 -31 31 -56 32 -84 2z m63 -42
c0 -23 -34 -33 -45 -14 -13 20 1 40 24 37 13 -2 21 -10 21 -23z"/>
<path d="M1810 861 c0 -5 7 -11 15 -15 11 -4 15 -22 15 -76 0 -56 3 -70 15
-70 12 0 15 16 15 85 l0 85 -30 0 c-16 0 -30 -4 -30 -9z"/>
<path d="M2090 855 c0 -10 10 -15 30 -15 17 0 30 -2 30 -4 0 -2 -13 -34 -30
-70 -26 -60 -27 -66 -11 -66 13 0 27 20 50 70 42 96 42 100 -19 100 -38 0 -50
-4 -50 -15z"/>
</g>
</svg>
